<?xml version="1.0" encoding="UTF-8"?>
<svg version="1.1" xmlns="http://www.w3.org/2000/svg" width="551" height="551">
<path d="M0 0 C1.25498291 -0.01401855 2.50996582 -0.02803711 3.80297852 -0.04248047 C24.68774137 0.06464201 39.48716217 7.54528854 54.4375 21.6875 C67.09775051 34.70500625 71.98582593 50.39360839 74.38671875 67.9609375 C78.17972645 95.25154384 90.22806539 120.16215358 112.53491211 137.13134766 C120.12759564 142.71036934 127.96289543 146.99684166 136.75 150.375 C137.38276855 150.6318457 138.01553711 150.88869141 138.66748047 151.15332031 C153.4535255 156.91104542 169.3386484 155.90487352 184.93359375 155.6484375 C185.66201981 155.63767685 186.39044586 155.6269162 187.14094543 155.61582947 C190.49935127 155.53764254 193.51660045 155.26250516 196.75 154.375 C221.91640049 152.70155249 249.76065533 154.25533116 272.75 165.375 C273.64847656 165.80425781 274.54695313 166.23351562 275.47265625 166.67578125 C298.69949908 178.53985205 316.21151799 198.80880085 324.75 223.375 C331.91122342 247.84471544 330.14242065 272.18385178 317.95043945 294.6862793 C314.1746877 301.44695892 309.91070767 307.59194353 304.75 313.375 C304.02425781 314.19484375 303.29851562 315.0146875 302.55078125 315.859375 C292.94576182 326.08356097 281.07512963 333.92721391 267.75 338.375 C266.87988281 338.66890625 266.00976562 338.9628125 265.11328125 339.265625 C240.06499828 346.55499693 212.34295657 344.85040451 189.375 332.4453125 C168.50814727 320.72394242 151.23864968 302.34364016 143.75 279.375 C142.90789903 275.50301976 142.35354214 271.61139629 141.8125 267.6875 C138.88305966 248.63666918 132.9122085 230.87980172 119.75 216.375 C119.01136719 215.54355469 118.27273438 214.71210938 117.51171875 213.85546875 C103.07540993 198.47406606 80.93003154 187.2975169 59.76460266 186.22351074 C58.71604599 186.21098267 57.66748932 186.19845459 56.5871582 186.18554688 C55.38763016 186.16882935 54.18810211 186.15211182 52.95222473 186.1348877 C51.66474838 186.12131226 50.37727203 186.10773682 49.05078125 186.09375 C47.69239125 186.07565945 46.33400803 186.0570543 44.97563171 186.03796387 C40.67131277 185.97853903 36.36691997 185.92649289 32.0625 185.875 C-18.12758339 185.26750622 -18.12758339 185.26750622 -28.625 182.6875 C-29.35847656 182.51524902 -30.09195313 182.34299805 -30.84765625 182.16552734 C-37.74167638 180.44051838 -43.99833686 177.75039052 -50.25 174.375 C-51.13042969 173.91222656 -52.01085937 173.44945312 -52.91796875 172.97265625 C-59.5007682 169.28832973 -64.81669309 164.56927818 -70.25 159.375 C-70.87777344 158.82199219 -71.50554687 158.26898438 -72.15234375 157.69921875 C-86.36547429 144.71080241 -93.25509451 123.83430073 -94.46582031 105.02148438 C-95.61195387 74.89218923 -89.42099542 49.02116766 -68.49609375 26.37109375 C-49.32632015 6.12575688 -27.16144732 0.20927918 0 0 Z " fill="#ffffff" transform="translate(149.25,115.625)"/>
<path d="M0 0 C1.25175522 -0.00350464 2.50351044 -0.00700928 3.79319763 -0.01062012 C7.19828077 -0.01787141 10.60311813 -0.01623194 14.00818706 -0.00986195 C17.59046784 -0.00476045 21.17273889 -0.00950494 24.75502014 -0.01263428 C30.76931621 -0.01626239 36.783563 -0.01150576 42.79785156 -0.00195312 C49.72566365 0.00892425 56.65335793 0.00540641 63.58116716 -0.00560594 C69.55517448 -0.01471779 75.52914659 -0.01594497 81.50315863 -0.0107286 C85.05974699 -0.0076296 88.61628021 -0.00714191 92.17286491 -0.01380157 C96.14263263 -0.020717 100.11227123 -0.01109892 104.08203125 0 C105.82253754 -0.00607269 105.82253754 -0.00607269 107.59820557 -0.01226807 C122.8058936 0.06609214 135.7666114 3.24313266 147.07055664 13.99316406 C157.4185595 25.5130137 160.23461539 37.80807753 160.30883789 52.89160156 C160.31453796 53.8052951 160.32023804 54.71898865 160.32611084 55.66036987 C160.33551971 57.58834694 160.34207838 59.51633979 160.34594727 61.44433594 C160.35561438 64.35413624 160.38666146 67.26321772 160.41821289 70.17285156 C160.52135572 88.23784375 158.45616579 102.30629864 145.60180664 115.89941406 C131.04414424 129.65970841 113.01840398 129.85721468 94.15258789 129.68457031 C92.0420971 129.67962397 89.93160184 129.67633977 87.82110596 129.67460632 C82.28482829 129.66507464 76.74896644 129.63078564 71.21282959 129.59173584 C66.7931081 129.56481719 62.37344143 129.55601215 57.95365143 129.5479908 C45.30222456 129.52480891 32.65241076 129.43455981 20.00180054 129.29053497 C17.18725763 129.25968293 14.37270639 129.23383819 11.55810547 129.20892334 C7.34551718 129.16923081 3.13378434 129.10823584 -1.07823944 129.02889061 C-2.58081366 129.00300353 -4.08350851 128.98320511 -5.58625031 128.97030067 C-18.96255804 128.84419361 -28.81004011 126.31169262 -38.89428711 117.25878906 C-39.53366211 116.68902344 -40.17303711 116.11925781 -40.83178711 115.53222656 C-49.41458687 107.43035955 -53.85507883 97.99482346 -54.29833984 86.14160156 C-54.32459659 83.8891289 -54.33367173 81.63640731 -54.32788086 79.38378906 C-54.33312271 78.17867676 -54.33836456 76.97356445 -54.34376526 75.73193359 C-54.35015649 73.19727342 -54.34888633 70.66258348 -54.34033203 68.12792969 C-54.3318118 64.26996692 -54.36064407 60.41348141 -54.39233398 56.55566406 C-54.39394609 54.08170617 -54.39336828 51.60774568 -54.39038086 49.13378906 C-54.40161484 47.99184082 -54.41284882 46.84989258 -54.42442322 45.67333984 C-54.31217986 32.6538328 -49.0212716 22.64648788 -40.33178711 13.13378906 C-28.69165749 2.00555807 -15.41134925 -0.05367714 0 0 Z " fill="#ffffff" transform="translate(324.894287109375,111.7412109375)"/>
<path d="M0 0 C4.65559347 1.35729538 8.5774272 3.31303597 12.625 5.9375 C13.23037598 6.329375 13.83575195 6.72125 14.45947266 7.125 C33.96962991 20.13517019 49.27998215 39.81100956 55.375 62.625 C56 66 56 66 56 70 C55.34 70 54.68 70 54 70 C53.70609375 68.65421875 53.70609375 68.65421875 53.40625 67.28125 C47.52155374 42.72786215 32.68214979 20.80462667 10.96484375 7.47265625 C8.29316599 5.86507888 5.59833371 4.30270297 2.89453125 2.75 C1.46173828 1.88375 1.46173828 1.88375 0 1 C0 0.67 0 0.34 0 0 Z " fill="#6E6E6E" transform="translate(420,281)"/>
<path d="M0 0 C14.32235819 0.65101628 26.40008265 11.81944124 35.90234375 21.58984375 C45.05452003 32.10547274 50.39051484 44.23529855 52 58 C51.01 58.495 51.01 58.495 50 59 C49.79246094 58.07960937 49.58492187 57.15921875 49.37109375 56.2109375 C44.71692701 37.08795953 35.23143369 20.14150748 18.26953125 9.24609375 C12.40274889 5.94447716 6.31103041 3.32727803 0 1 C0 0.67 0 0.34 0 0 Z " fill="#8C8C8C" transform="translate(170,118)"/>
<path d="M0 0 C0.66 0 1.32 0 2 0 C2.46148437 0.93199219 2.92296875 1.86398438 3.3984375 2.82421875 C15.23087555 26.16555163 32.25843476 42.10341535 56 53 C55.01 53.495 55.01 53.495 54 54 C51.45728601 52.9622814 49.06745755 51.86591694 46.625 50.625 C45.90473633 50.25922852 45.18447266 49.89345703 44.44238281 49.51660156 C24.24961897 38.96760776 9.74598481 22.38066124 0 2 C0 1.34 0 0.68 0 0 Z " fill="#8A8A8A" transform="translate(229,213)"/>
<path d="M0 0 C4.65563913 1.35730869 8.57731544 3.31316448 12.625 5.9375 C13.53197632 6.52422485 13.53197632 6.52422485 14.45727539 7.12280273 C23.16814423 12.9289095 33.51629296 21.02281164 39 30 C38.505 31.485 38.505 31.485 38 33 C37.50371094 32.35933594 37.00742187 31.71867187 36.49609375 31.05859375 C26.36600655 18.16051308 14.71470648 8.39628103 0 1 C0 0.67 0 0.34 0 0 Z " fill="#868686" transform="translate(420,281)"/>
<path d="M0 0 C0.66 0.33 1.32 0.66 2 1 C1.39671875 1.56847656 0.7934375 2.13695313 0.171875 2.72265625 C-4.50332154 7.23949936 -8.09638002 11.19276004 -11 17 C-11.72775427 18.16754822 -12.45693665 19.33420742 -13.1875 20.5 C-15.06797602 24.13126404 -15.51775696 26.98130803 -16 31 C-16.66 31.33 -17.32 31.66 -18 32 C-17.31993693 17.94536326 -9.65370329 9.56147046 0 0 Z " fill="#787878" transform="translate(289,121)"/>
<path d="M0 0 C7.40626544 8.70476652 10.82399539 18.74685244 12 30 C11.34 30.33 10.68 30.66 10 31 C9.78085938 30.05640625 9.56171875 29.1128125 9.3359375 28.140625 C7.43927716 20.34698255 5.11712932 13.54872401 1.171875 6.48828125 C0 4 0 4 0 0 Z " fill="#707070" transform="translate(210,146)"/>
<path d="M0 0 C0.66 0 1.32 0 2 0 C2.54269531 1.03640625 3.08539063 2.0728125 3.64453125 3.140625 C4.36700609 4.51051236 5.08967243 5.88029873 5.8125 7.25 C6.16892578 7.93191406 6.52535156 8.61382812 6.89257812 9.31640625 C8.72285184 12.77545566 10.63864288 15.87138804 13 19 C13 19.66 13 20.32 13 21 C12.34 21 11.68 21 11 21 C9.59058087 18.98312422 8.31366993 16.98706667 7.0625 14.875 C6.54139648 14.02035156 6.54139648 14.02035156 6.00976562 13.1484375 C0 3.18875059 0 3.18875059 0 0 Z " fill="#777777" transform="translate(229,213)"/>
</svg>
