<?xml version="1.0" encoding="UTF-8"?>
<svg id="Capa_1" data-name="Capa 1" xmlns="http://www.w3.org/2000/svg" viewBox="0 0 1080 303.32">
  <defs>
    <style>
      .cls-1, .cls-2 {
        fill: #022b3a;
      }

      .cls-2 {
        font-family: Arboria-Book, Arboria;
        font-size: 58.97px;
      }
    </style>
  </defs>
  <g>
    <rect class="cls-1" x="164.47" y="27.11" width="84.35" height="63.68" rx="18.94" ry="18.94"/>
    <g>
      <path class="cls-1" d="M169.76,218.17c-16.34,0-29.64-13.29-29.64-29.64v-18.69c0-19.11-15.49-34.61-34.61-34.61h-39.01c-16.34,0-29.64-13.29-29.64-29.64v-49.93c0-16.34,13.29-29.64,29.64-29.64h49.93c16.34,0,29.64,13.29,29.64,29.64v18.69c0,19.11,15.49,34.61,34.61,34.61h39.01c16.34,0,29.64,13.29,29.64,29.64v49.93c0,16.34-13.29,29.64-29.64,29.64h-49.93Z"/>
      <path class="cls-1" d="M169.76,218.17c-16.34,0-29.64-13.29-29.64-29.64v-18.69c0-19.11-15.49-34.61-34.61-34.61h-39.01c-16.34,0-29.64-13.29-29.64-29.64v-49.93c0-16.34,13.29-29.64,29.64-29.64h49.93c16.34,0,29.64,13.29,29.64,29.64v18.69c0,19.11,15.49,34.61,34.61,34.61h39.01c16.34,0,29.64,13.29,29.64,29.64v49.93c0,16.34-13.29,29.64-29.64,29.64h-49.93Z"/>
    </g>
  </g>
  <g>
    <path class="cls-1" d="M414.64,184.54c0,21.51-9.88,34.3-30.23,34.3h-51.44c-17.15,0-29.64-10.46-29.64-33.13v-23c0-4.15,3.36-7.52,7.52-7.52h18.39c4.15,0,7.52,3.36,7.52,7.52v18.1c0,4.15,3.36,7.52,7.52,7.52h29.44c4.15,0,7.52-3.36,7.52-7.52v-25c0-2.87-1.63-5.48-4.2-6.75l-57.99-28.45c-11.63-6.39-15.69-12.79-15.69-27.61v-34c0-20.93,10.17-29.06,29.06-29.06h52.31c22.67,0,29.94,10.75,29.94,34.3v18.64c0,4.15-3.36,7.52-7.52,7.52h-18.39c-4.15,0-7.52-3.36-7.52-7.52v-14.61c0-4.15-3.36-7.52-7.52-7.52h-29.44c-4.15,0-7.52,3.36-7.52,7.52v19.75c0,2.88,1.64,5.5,4.23,6.76l58.55,28.46c11.63,6.1,15.11,12.5,15.11,27.9v33.42Z"/>
    <path class="cls-1" d="M434.41,39.68h17.23c4.15,0,7.52,3.36,7.52,7.52v14.03c0,4.15-3.36,7.52-7.52,7.52h-17.23c-4.15,0-7.52-3.36-7.52-7.52v-14.03c0-4.15,3.36-7.52,7.52-7.52ZM434.41,81.08h17.23c4.15,0,7.52,3.36,7.52,7.52v122.73c0,4.15-3.36,7.52-7.52,7.52h-17.23c-4.15,0-7.52-3.36-7.52-7.52v-122.73c0-4.15,3.36-7.52,7.52-7.52Z"/>
    <path class="cls-1" d="M900.98,39.68h17.23c4.15,0,7.52,3.36,7.52,7.52v14.03c0,4.15-3.36,7.52-7.52,7.52h-17.23c-4.15,0-7.52-3.36-7.52-7.52v-14.03c0-4.15,3.36-7.52,7.52-7.52ZM900.98,81.08h17.23c4.15,0,7.52,3.36,7.52,7.52v122.73c0,4.15-3.36,7.52-7.52,7.52h-17.23c-4.15,0-7.52-3.36-7.52-7.52v-122.73c0-4.15,3.36-7.52,7.52-7.52Z"/>
    <path class="cls-1" d="M480.11,81.08h16.98c4.18,0,7.56,3.41,7.51,7.59l-.04,3.45c9.3-4.94,24.12-12.21,41.56-12.21,19.76,0,27.32,9.88,27.32,29.35v102.05c0,4.15-3.36,7.52-7.52,7.52h-16.94c-4.15,0-7.52-3.36-7.52-7.52v-93.09c0-4.15-3.36-7.52-7.52-7.52h-21.59c-4.15,0-7.52,3.36-7.52,7.52v93.09c0,4.15-3.36,7.52-7.52,7.52h-17.23c-4.15,0-7.52-3.36-7.52-7.52v-122.73c0-4.15,3.36-7.52,7.52-7.52Z"/>
    <path class="cls-1" d="M586.82,186v-72.37c0-21.51,11.04-32.55,31.39-32.55h33.56c20.63,0,30.52,10.75,30.52,31.97v44.15c0,3.53-2.86,6.39-6.39,6.39h-50.99c-3.53,0-6.39,2.86-6.39,6.39v15.14c0,3.53,2.86,6.39,6.39,6.39h19.81c3.53,0,6.39-2.86,6.39-6.39h0c0-3.53,2.86-6.39,6.39-6.39h18.31c3.53,0,6.39,2.86,6.39,6.39v1.45c0,21.8-9.59,32.26-30.81,32.26h-32.59c-20.64,0-31.97-10.46-31.97-32.84ZM618.5,115.95v18.31c0,3.53,2.86,6.39,6.39,6.39h25.58c3.53,0,6.39-2.86,6.39-6.39v-18.31c0-3.53-2.86-6.39-6.39-6.39h-25.58c-3.53,0-6.39,2.86-6.39,6.39Z"/>
    <path class="cls-1" d="M703.37,81.08h16.47c3.87,0,7.1,2.94,7.48,6.79l.5,5.13c4.83-3.62,16.07-10.25,30.56-12.39,4.77-.71,8.94,3.26,8.54,8.07l-.1,16.24c-.32,3.9-3.58,6.9-7.49,6.9l-23.7-.21c-4.15,0-7.52,3.36-7.52,7.52v92.21c0,4.15-3.36,7.52-7.52,7.52h-17.23c-4.15,0-7.52-3.36-7.52-7.52v-122.73c0-4.15,3.36-7.52,7.52-7.52Z"/>
    <path class="cls-1" d="M788.67,247.17h58.46v-39.08c-2.03,1.74-18.31,11.33-40.11,11.33-22.96,0-31.39-12.21-31.39-29.65v-79.92c0-17.73,8.14-29.94,31.39-29.94,16.28,0,31.68,6.1,40.4,11.63l.42-3.78c.42-3.81,3.64-6.69,7.47-6.69h16.28c4.15,0,7.52,3.36,7.52,7.52v155.67c0,21.22-7.56,30.81-28.48,30.81h-62.12c-4.43,0-7.9-3.81-7.48-8.22l.17-12.87c.36-3.86,3.6-6.81,7.48-6.81ZM847.13,181.97v-63.73c0-4.15-3.36-7.52-7.52-7.52h-24.2c-4.15,0-7.52,3.36-7.52,7.52v63.73c0,4.15,3.36,7.52,7.52,7.52h24.2c4.15,0,7.52-3.36,7.52-7.52Z"/>
    <path class="cls-1" d="M939.37,190.07v-80.22c0-17.73,8.14-29.94,30.52-29.94,16.57,0,32.26,5.81,40.98,11.63l-.03-2.88c-.04-4.18,3.34-7.59,7.52-7.59h17.26c4.15,0,7.52,3.36,7.52,7.52v122.73c0,4.15-3.36,7.52-7.52,7.52h-17.26c-4.18,0-7.55-3.41-7.52-7.59l.03-2.88c-2.03,1.74-19.76,11.63-40.98,11.63s-30.52-12.21-30.52-29.94ZM1010.87,181.97v-63.73c0-4.15-3.36-7.52-7.52-7.52h-24.2c-4.15,0-7.52,3.36-7.52,7.52v63.73c0,4.15,3.36,7.52,7.52,7.52h24.2c4.15,0,7.52-3.36,7.52-7.52Z"/>
  </g>
  <text class="cls-2" transform="translate(593.35 274.65)"><tspan x="0" y="0">studio</tspan></text>
</svg>