<?xml version="1.0" encoding="UTF-8"?>
<svg id="Capa_1" data-name="Capa 1" xmlns="http://www.w3.org/2000/svg" viewBox="0 0 305 305">
  <defs>
    <style>
      .cls-1 {
        fill: #fc2bb6;
      }
    </style>
  </defs>
  <rect class="cls-1" x="179" y="37.01" width="104.62" height="77.42" rx="23.25" ry="23.25"/>
  <g>
    <path class="cls-1" d="M185.24,268.78c-19.76,0-35.84-16.08-35.84-35.84v-29.39c0-19.66-15.94-35.59-35.59-35.59h-56.63c-19.76,0-35.84-16.08-35.84-35.84v-60.05c0-19.76,16.08-35.84,35.84-35.84h62.6c19.76,0,35.84,16.08,35.84,35.84v29.39c0,19.66,15.94,35.59,35.59,35.59h56.63c19.76,0,35.84,16.08,35.84,35.84v60.05c0,19.76-16.08,35.84-35.84,35.84h-62.6Z"/>
    <path class="cls-1" d="M185.24,268.78c-19.76,0-35.84-16.08-35.84-35.84v-29.39c0-19.66-15.94-35.59-35.59-35.59h-56.63c-19.76,0-35.84-16.08-35.84-35.84v-60.05c0-19.76,16.08-35.84,35.84-35.84h62.6c19.76,0,35.84,16.08,35.84,35.84v29.39c0,19.66,15.94,35.59,35.59,35.59h56.63c19.76,0,35.84,16.08,35.84,35.84v60.05c0,19.76-16.08,35.84-35.84,35.84h-62.6Z"/>
  </g>
</svg>